<svg width="250" height="250" viewBox="0 0 250 250" fill="none" xmlns="http://www.w3.org/2000/svg">
<rect width="250" height="250" rx="34" fill="black"/>
<path d="M201.022 124.415C202.743 170.894 170.743 206.38 122.736 205.143C122.736 190.248 122.736 175.91 122.736 175.91C148.558 175.91 170.575 160.402 169.536 122.545C168.816 96.283 149.082 72.4752 118.22 75.1098C118.22 59.6168 118.22 45 118.22 45C172.041 46.8818 201.022 80.6981 201.022 124.415Z" fill="white"/>
<rect x="58" y="175.978" width="65.4889" height="29.3571" fill="white"/>
<rect x="73.0547" y="45" width="30.1098" height="30.1098" fill="white"/>
<rect x="73.0547" y="175.978" width="85.813" height="30.1098" transform="rotate(-90 73.0547 175.978)" fill="white"/>
<path d="M201.022 124.415C202.743 170.894 170.743 206.38 122.736 205.143C122.736 190.248 122.736 175.91 122.736 175.91C148.558 175.91 170.575 160.402 169.536 122.545C168.816 96.283 149.082 72.4752 118.22 75.1098C118.22 59.6168 118.22 45 118.22 45C172.041 46.8818 201.022 80.6981 201.022 124.415Z" fill="white"/>
<rect x="58" y="175.978" width="65.4889" height="29.3571" fill="white"/>
<rect x="73.0547" y="45" width="30.1098" height="30.1098" fill="white"/>
<rect x="73.0547" y="175.978" width="85.813" height="30.1098" transform="rotate(-90 73.0547 175.978)" fill="white"/>
</svg>
