<svg width="157" height="36" viewBox="0 0 157 36" fill="none" xmlns="http://www.w3.org/2000/svg">
<path d="M0.764 35V1.4H7.292V28.664H25.196V35H0.764ZM43.0201 0.919998C52.9561 0.919998 60.6361 7.16 60.6361 18.2C60.6361 29.768 52.9561 35.48 43.0201 35.48C33.3241 35.48 25.5961 29.288 25.5961 18.2H32.1241C32.1241 25.688 36.8761 29.384 43.0201 29.384C49.3561 29.384 54.1561 25.688 54.1561 18.2C54.1561 10.712 49.3561 7.064 43.0201 7.064V0.919998ZM69.6474 18.2H63.3594C63.3594 7.64 70.1274 0.919998 80.8314 0.919998C89.9994 0.919998 95.8074 4.472 97.4394 12.872H90.5754C89.3274 9.032 86.0154 6.632 80.8794 6.632C74.1594 6.632 69.6474 11.672 69.6474 18.2ZM80.3514 35H71.0394L89.3754 21.8H79.6794V17.096H97.5354C97.5354 17.336 97.5354 34.76 97.5354 35H91.4874V26.984L80.3514 35ZM115.705 35V1.4H122.185V35H115.705ZM150.527 35L127.535 1.4H134.207L150.431 24.536H150.671V1.4H156.863V35H150.527ZM127.823 35V9.56L134.111 18.536V35H127.823Z" fill="#FDFDFD"/>
</svg>
